<mxfile host="app.diagrams.net" modified="2023-01-11T01:46:34.089Z" agent="5.0 (Macintosh; Intel Mac OS X 10_15_7) AppleWebKit/537.36 (KHTML, like Gecko) Chrome/108.0.0.0 Safari/537.36" etag="Nod435b9BHVCndB5Qy4j" version="17.4.3" type="github">
  <diagram id="e1PoTqiXiB5KBp0_M16g" name="Page-1">
    <mxGraphModel dx="1426" dy="677" grid="1" gridSize="10" guides="1" tooltips="1" connect="1" arrows="1" fold="1" page="1" pageScale="1" pageWidth="827" pageHeight="1169" math="0" shadow="0">
      <root>
        <mxCell id="0" />
        <mxCell id="1" parent="0" />
        <mxCell id="jMKMErfgYeSf4tvzDP7Q-1" value="brpc" style="rounded=0;whiteSpace=wrap;html=1;comic=1;fillColor=#ffe6cc;strokeColor=#d79b00;" vertex="1" parent="1">
          <mxGeometry x="160" y="200" width="120" height="40" as="geometry" />
        </mxCell>
        <mxCell id="jMKMErfgYeSf4tvzDP7Q-2" value="istio control plane" style="rounded=0;whiteSpace=wrap;html=1;comic=1;fillColor=#e1d5e7;strokeColor=#9673a6;" vertex="1" parent="1">
          <mxGeometry x="480" y="200" width="120" height="40" as="geometry" />
        </mxCell>
        <mxCell id="jMKMErfgYeSf4tvzDP7Q-3" value="brpc" style="rounded=0;whiteSpace=wrap;html=1;comic=1;fillColor=#ffe6cc;strokeColor=#d79b00;" vertex="1" parent="1">
          <mxGeometry x="160" y="840" width="120" height="40" as="geometry" />
        </mxCell>
        <mxCell id="jMKMErfgYeSf4tvzDP7Q-4" value="istio control plane" style="rounded=0;whiteSpace=wrap;html=1;comic=1;fillColor=#e1d5e7;strokeColor=#9673a6;" vertex="1" parent="1">
          <mxGeometry x="480" y="840" width="120" height="40" as="geometry" />
        </mxCell>
        <mxCell id="jMKMErfgYeSf4tvzDP7Q-5" value="" style="endArrow=none;html=1;rounded=0;exitX=0.5;exitY=0;exitDx=0;exitDy=0;comic=1;" edge="1" parent="1" source="jMKMErfgYeSf4tvzDP7Q-3">
          <mxGeometry width="50" height="50" relative="1" as="geometry">
            <mxPoint x="170" y="290" as="sourcePoint" />
            <mxPoint x="220" y="240" as="targetPoint" />
          </mxGeometry>
        </mxCell>
        <mxCell id="jMKMErfgYeSf4tvzDP7Q-8" value="" style="endArrow=none;html=1;rounded=0;exitX=0.5;exitY=0;exitDx=0;exitDy=0;comic=1;" edge="1" parent="1" source="jMKMErfgYeSf4tvzDP7Q-4">
          <mxGeometry width="50" height="50" relative="1" as="geometry">
            <mxPoint x="490" y="290" as="sourcePoint" />
            <mxPoint x="540" y="240" as="targetPoint" />
          </mxGeometry>
        </mxCell>
        <mxCell id="jMKMErfgYeSf4tvzDP7Q-9" value="" style="endArrow=classic;html=1;rounded=0;comic=1;" edge="1" parent="1">
          <mxGeometry width="50" height="50" relative="1" as="geometry">
            <mxPoint x="220" y="280" as="sourcePoint" />
            <mxPoint x="540" y="280" as="targetPoint" />
          </mxGeometry>
        </mxCell>
        <mxCell id="jMKMErfgYeSf4tvzDP7Q-12" value="V=, R={rdsname}, N=, T=RDS" style="text;html=1;strokeColor=none;fillColor=none;align=center;verticalAlign=middle;whiteSpace=wrap;rounded=0;comic=1;" vertex="1" parent="1">
          <mxGeometry x="250" y="250" width="250" height="30" as="geometry" />
        </mxCell>
        <mxCell id="jMKMErfgYeSf4tvzDP7Q-14" value="V=X, R={rds_name:...}, N=A, T=RDS" style="text;html=1;strokeColor=none;fillColor=none;align=center;verticalAlign=middle;whiteSpace=wrap;rounded=0;comic=1;" vertex="1" parent="1">
          <mxGeometry x="250" y="290" width="250" height="30" as="geometry" />
        </mxCell>
        <mxCell id="jMKMErfgYeSf4tvzDP7Q-16" value="" style="endArrow=classic;html=1;rounded=0;comic=1;" edge="1" parent="1">
          <mxGeometry width="50" height="50" relative="1" as="geometry">
            <mxPoint x="540" y="320" as="sourcePoint" />
            <mxPoint x="220" y="320" as="targetPoint" />
          </mxGeometry>
        </mxCell>
        <mxCell id="jMKMErfgYeSf4tvzDP7Q-18" value="" style="endArrow=classic;html=1;rounded=0;comic=1;" edge="1" parent="1">
          <mxGeometry width="50" height="50" relative="1" as="geometry">
            <mxPoint x="220" y="360" as="sourcePoint" />
            <mxPoint x="540" y="360" as="targetPoint" />
          </mxGeometry>
        </mxCell>
        <mxCell id="jMKMErfgYeSf4tvzDP7Q-19" value="V=X, R={rds_name}, N=A, T=RDS (ACK)" style="text;html=1;strokeColor=none;fillColor=none;align=center;verticalAlign=middle;whiteSpace=wrap;rounded=0;comic=1;" vertex="1" parent="1">
          <mxGeometry x="250" y="330" width="250" height="30" as="geometry" />
        </mxCell>
        <mxCell id="jMKMErfgYeSf4tvzDP7Q-20" value="" style="endArrow=classic;html=1;rounded=0;comic=1;" edge="1" parent="1">
          <mxGeometry width="50" height="50" relative="1" as="geometry">
            <mxPoint x="220" y="440" as="sourcePoint" />
            <mxPoint x="540" y="440" as="targetPoint" />
          </mxGeometry>
        </mxCell>
        <mxCell id="jMKMErfgYeSf4tvzDP7Q-21" value="" style="endArrow=classic;html=1;rounded=0;comic=1;" edge="1" parent="1">
          <mxGeometry width="50" height="50" relative="1" as="geometry">
            <mxPoint x="220" y="520" as="sourcePoint" />
            <mxPoint x="540" y="520" as="targetPoint" />
          </mxGeometry>
        </mxCell>
        <mxCell id="jMKMErfgYeSf4tvzDP7Q-22" value="" style="endArrow=classic;html=1;rounded=0;comic=1;" edge="1" parent="1">
          <mxGeometry width="50" height="50" relative="1" as="geometry">
            <mxPoint x="540" y="480" as="sourcePoint" />
            <mxPoint x="220" y="480" as="targetPoint" />
          </mxGeometry>
        </mxCell>
        <mxCell id="jMKMErfgYeSf4tvzDP7Q-23" value="V=, R={eds_name}, N=, T=EDS" style="text;html=1;strokeColor=none;fillColor=none;align=center;verticalAlign=middle;whiteSpace=wrap;rounded=0;comic=1;" vertex="1" parent="1">
          <mxGeometry x="250" y="410" width="250" height="30" as="geometry" />
        </mxCell>
        <mxCell id="jMKMErfgYeSf4tvzDP7Q-24" value="V=Y, R={eds_name:...}, N=B, T=EDS" style="text;html=1;strokeColor=none;fillColor=none;align=center;verticalAlign=middle;whiteSpace=wrap;rounded=0;comic=1;" vertex="1" parent="1">
          <mxGeometry x="250" y="450" width="250" height="30" as="geometry" />
        </mxCell>
        <mxCell id="jMKMErfgYeSf4tvzDP7Q-25" value="V=Y, R={eds_name}, N=B, T=EDS (ACK)" style="text;html=1;strokeColor=none;fillColor=none;align=center;verticalAlign=middle;whiteSpace=wrap;rounded=0;comic=1;" vertex="1" parent="1">
          <mxGeometry x="250" y="490" width="250" height="30" as="geometry" />
        </mxCell>
        <mxCell id="jMKMErfgYeSf4tvzDP7Q-26" value="" style="endArrow=classic;html=1;rounded=0;comic=1;" edge="1" parent="1">
          <mxGeometry width="50" height="50" relative="1" as="geometry">
            <mxPoint x="535" y="640" as="sourcePoint" />
            <mxPoint x="215" y="640" as="targetPoint" />
          </mxGeometry>
        </mxCell>
        <mxCell id="jMKMErfgYeSf4tvzDP7Q-27" value="" style="endArrow=classic;html=1;rounded=0;comic=1;" edge="1" parent="1">
          <mxGeometry width="50" height="50" relative="1" as="geometry">
            <mxPoint x="220" y="680" as="sourcePoint" />
            <mxPoint x="540" y="680" as="targetPoint" />
          </mxGeometry>
        </mxCell>
        <mxCell id="jMKMErfgYeSf4tvzDP7Q-29" value="......" style="text;html=1;strokeColor=none;fillColor=none;align=center;verticalAlign=middle;whiteSpace=wrap;rounded=0;comic=1;" vertex="1" parent="1">
          <mxGeometry x="345" y="550" width="60" height="30" as="geometry" />
        </mxCell>
        <mxCell id="jMKMErfgYeSf4tvzDP7Q-30" value="V=C, R={rds_name:...}, N=K, T=RDS" style="text;html=1;strokeColor=none;fillColor=none;align=center;verticalAlign=middle;whiteSpace=wrap;rounded=0;comic=1;" vertex="1" parent="1">
          <mxGeometry x="260" y="610" width="250" height="30" as="geometry" />
        </mxCell>
        <mxCell id="jMKMErfgYeSf4tvzDP7Q-31" value="V=C, R={rds_name}, N=K, T=RDS (ACK)" style="text;html=1;strokeColor=none;fillColor=none;align=center;verticalAlign=middle;whiteSpace=wrap;rounded=0;comic=1;" vertex="1" parent="1">
          <mxGeometry x="260" y="650" width="250" height="30" as="geometry" />
        </mxCell>
        <mxCell id="jMKMErfgYeSf4tvzDP7Q-32" value="" style="endArrow=classic;html=1;rounded=0;comic=1;" edge="1" parent="1">
          <mxGeometry width="50" height="50" relative="1" as="geometry">
            <mxPoint x="540" y="720" as="sourcePoint" />
            <mxPoint x="220" y="720" as="targetPoint" />
          </mxGeometry>
        </mxCell>
        <mxCell id="jMKMErfgYeSf4tvzDP7Q-33" value="" style="endArrow=classic;html=1;rounded=0;comic=1;" edge="1" parent="1">
          <mxGeometry width="50" height="50" relative="1" as="geometry">
            <mxPoint x="220" y="760" as="sourcePoint" />
            <mxPoint x="540" y="760" as="targetPoint" />
          </mxGeometry>
        </mxCell>
        <mxCell id="jMKMErfgYeSf4tvzDP7Q-34" value="......" style="text;html=1;strokeColor=none;fillColor=none;align=center;verticalAlign=middle;whiteSpace=wrap;rounded=0;comic=1;" vertex="1" parent="1">
          <mxGeometry x="345" y="790" width="60" height="30" as="geometry" />
        </mxCell>
        <mxCell id="jMKMErfgYeSf4tvzDP7Q-35" value="V=Z, R={eds_name:...}, N=S, T=EDS" style="text;html=1;strokeColor=none;fillColor=none;align=center;verticalAlign=middle;whiteSpace=wrap;rounded=0;comic=1;" vertex="1" parent="1">
          <mxGeometry x="260" y="690" width="250" height="30" as="geometry" />
        </mxCell>
        <mxCell id="jMKMErfgYeSf4tvzDP7Q-36" value="V=Z, R={eds_name}, N=S, T=EDS (ACK)" style="text;html=1;strokeColor=none;fillColor=none;align=center;verticalAlign=middle;whiteSpace=wrap;rounded=0;comic=1;" vertex="1" parent="1">
          <mxGeometry x="260" y="730" width="250" height="30" as="geometry" />
        </mxCell>
      </root>
    </mxGraphModel>
  </diagram>
</mxfile>
